# xmcd
#
# Track frame offsets:
#	150
#	7383
#	20272
#	29674
#	42257
#	54963
#	69313
#	81865
#	95275
#	107657
#	117782
#	126686
#	140690
#	154334
#	167191
#	177762
#	187692
#	194910
#	203561
#	213610
#	224974
#	238445
#	249584
#	261662
#	273739
#	286796
#	298487
#	307185
#	318400
#	329125
#	337510
#
# Disc length: 4624 seconds
#
# Revision: 1
# Processed by: cddbd v1.5.2PL0 Copyright (c) Steve Scherf et al.
# Submitted via: audiograbber 1.83.01
#
DISCID=fb120e1f
DTITLE=Four Knights - Lang-Worth Transcriptions, 1945-1949
DYEAR=1900
DGENRE=Vocal
TTITLE0=Dark Town Strutters' Ball
TTITLE1=Georgia On My Mind
TTITLE2=It's a Good Day
TTITLE3=Honeyfoglin' Time
TTITLE4=So Soon
TTITLE5=I'm Falling for You
TTITLE6=Walkin' With My Shadow
TTITLE7=I Love You for Sentimental Reasons
TTITLE8=Ridin' Down the Canyon
TTITLE9=Dreams Are a Dime a Dozen
TTITLE10=Chi-Baba, Chi-Baba (My Bambino Go to Sleep)
TTITLE11=The Man Who Paints the Rainbow
TTITLE12=What Are You Doing New Years' Eve
TTITLE13=Why Did It Have to End So Soon
TTITLE14=Don't You Love Me Anymore
TTITLE15=When Tonight Is Just a Memory
TTITLE16=Brother Bill
TTITLE17=My Melancholy Baby
TTITLE18=Don't Count Your Dreams
TTITLE19=It's So Nice to be Your Neighbor
TTITLE20=Lonesome
TTITLE21=Let Me Off Uptown
TTITLE22=Don't Cry, Cry Baby
TTITLE23=Wrapped Up in a Dream
TTITLE24=Fantastic
TTITLE25=Crystal Gazer
TTITLE26=Ain't Got Nothin' to Lose
TTITLE27=Grandfather's Clock
TTITLE28=I Couldn't Stay Away From You
TTITLE29=Look Up
TTITLE30=Blue Tail Fly
EXTD=
EXTT0=
EXTT1=
EXTT2=
EXTT3=
EXTT4=
EXTT5=
EXTT6=
EXTT7=
EXTT8=
EXTT9=
EXTT10=
EXTT11=
EXTT12=
EXTT13=
EXTT14=
EXTT15=
EXTT16=
EXTT17=
EXTT18=
EXTT19=
EXTT20=
EXTT21=
EXTT22=
EXTT23=
EXTT24=
EXTT25=
EXTT26=
EXTT27=
EXTT28=
EXTT29=
EXTT30=
PLAYORDER=
